{
    "asset" : {
        "generator" : "Khronos glTF Blender I/O v1.7.33",
        "version" : "2.0"
    },
    "scene" : 0,
    "scenes" : [
        {
            "name" : "Scene",
            "nodes" : [
                0,
                1,
                2,
                3,
                4
            ]
        }
    ],
    "nodes" : [
        {
            "mesh" : 0,
            "name" : "Sushi",
            "scale" : [
                0.4101073145866394,
                0.17937436699867249,
                0.4101073145866394
            ],
            "translation" : [
                -1.3701484203338623,
                0.38996821641921997,
                0.9277224540710449
            ]
        },
        {
            "mesh" : 1,
            "name" : "Plane"
        },
        {
            "mesh" : 2,
            "name" : "Chopsticks",
            "scale" : [
                2.239013433456421,
                0.07748787105083466,
                0.07798244059085846
            ],
            "translation" : [
                0.005299275740981102,
                0.6374781131744385,
                -3.4648027420043945
            ]
        },
        {
            "mesh" : 2,
            "name" : "Chopsticks2",
            "scale" : [
                2.239013433456421,
                0.07748787105083466,
                0.07798244059085846
            ],
            "translation" : [
                0.004854087717831135,
                0.6322699785232544,
                -3.252204656600952
            ]
        },
        {
            "mesh" : 3,
            "name" : "background",
            "scale" : [
                10.78211784362793,
                10.78211784362793,
                10.78211784362793
            ]
        }
    ],
    "materials" : [
        {
            "doubleSided" : true,
            "name" : "Rice",
            "pbrMetallicRoughness" : {
                "baseColorFactor" : [
                    0.8000000715255737,
                    0.70252925157547,
                    0.6768789291381836,
                    1
                ],
                "metallicFactor" : 0,
                "roughnessFactor" : 0.4000000059604645
            }
        },
        {
            "doubleSided" : true,
            "name" : "Salmon",
            "pbrMetallicRoughness" : {
                "baseColorFactor" : [
                    0.8000000715255737,
                    0.3623477518558502,
                    0.18710482120513916,
                    1
                ],
                "metallicFactor" : 0,
                "roughnessFactor" : 0.5
            }
        },
        {
            "doubleSided" : true,
            "name" : "Cucumber",
            "pbrMetallicRoughness" : {
                "baseColorFactor" : [
                    0.0886446014046669,
                    0.8000000715255737,
                    0.09940384328365326,
                    1
                ],
                "metallicFactor" : 0,
                "roughnessFactor" : 0.5
            }
        },
        {
            "doubleSided" : true,
            "name" : "SeedWeed",
            "pbrMetallicRoughness" : {
                "baseColorFactor" : [
                    0.0018276243936270475,
                    0.06779851019382477,
                    0.04460993781685829,
                    1
                ],
                "metallicFactor" : 0,
                "roughnessFactor" : 0.5
            }
        },
        {
            "doubleSided" : true,
            "name" : "Plate",
            "pbrMetallicRoughness" : {
                "baseColorFactor" : [
                    1,
                    0.9627783298492432,
                    0.974397599697113,
                    1
                ],
                "metallicFactor" : 0,
                "roughnessFactor" : 0.5
            }
        },
        {
            "doubleSided" : true,
            "name" : "Chopsticks",
            "pbrMetallicRoughness" : {
                "baseColorFactor" : [
                    0.8000000715255737,
                    0.1499202847480774,
                    0.102789968252182,
                    1
                ],
                "metallicFactor" : 0,
                "roughnessFactor" : 0.5
            }
        },
        {
            "doubleSided" : true,
            "name" : "background-color",
            "pbrMetallicRoughness" : {
                "baseColorFactor" : [
                    0.5894285440444946,
                    0.2538107931613922,
                    0.2749882936477661,
                    1
                ],
                "metallicFactor" : 0,
                "roughnessFactor" : 0.5
            }
        }
    ],
    "meshes" : [
        {
            "name" : "Cube",
            "primitives" : [
                {
                    "attributes" : {
                        "POSITION" : 0,
                        "NORMAL" : 1,
                        "TEXCOORD_0" : 2
                    },
                    "indices" : 3,
                    "material" : 0
                },
                {
                    "attributes" : {
                        "POSITION" : 4,
                        "NORMAL" : 5,
                        "TEXCOORD_0" : 6
                    },
                    "indices" : 7,
                    "material" : 1
                },
                {
                    "attributes" : {
                        "POSITION" : 8,
                        "NORMAL" : 9,
                        "TEXCOORD_0" : 10
                    },
                    "indices" : 11,
                    "material" : 2
                },
                {
                    "attributes" : {
                        "POSITION" : 12,
                        "NORMAL" : 13,
                        "TEXCOORD_0" : 14
                    },
                    "indices" : 15,
                    "material" : 3
                }
            ]
        },
        {
            "name" : "Plane",
            "primitives" : [
                {
                    "attributes" : {
                        "POSITION" : 16,
                        "NORMAL" : 17,
                        "TEXCOORD_0" : 18
                    },
                    "indices" : 19,
                    "material" : 4
                }
            ]
        },
        {
            "name" : "Cube.001",
            "primitives" : [
                {
                    "attributes" : {
                        "POSITION" : 20,
                        "NORMAL" : 21,
                        "TEXCOORD_0" : 22
                    },
                    "indices" : 23,
                    "material" : 5
                }
            ]
        },
        {
            "name" : "Plane.001",
            "primitives" : [
                {
                    "attributes" : {
                        "POSITION" : 24,
                        "NORMAL" : 25,
                        "TEXCOORD_0" : 26
                    },
                    "indices" : 27,
                    "material" : 6
                }
            ]
        }
    ],
    "accessors" : [
        {
            "bufferView" : 0,
            "componentType" : 5126,
            "count" : 1979,
            "max" : [
                8.411050796508789,
                1.3520934581756592,
                1.4565221071243286
            ],
            "min" : [
                -1.4501817226409912,
                -1.0705623626708984,
                -5.34757137298584
            ],
            "type" : "VEC3"
        },
        {
            "bufferView" : 1,
            "componentType" : 5126,
            "count" : 1979,
            "type" : "VEC3"
        },
        {
            "bufferView" : 2,
            "componentType" : 5126,
            "count" : 1979,
            "type" : "VEC2"
        },
        {
            "bufferView" : 3,
            "componentType" : 5123,
            "count" : 7884,
            "type" : "SCALAR"
        },
        {
            "bufferView" : 4,
            "componentType" : 5126,
            "count" : 108,
            "max" : [
                7.496150493621826,
                0.8238451480865479,
                0.4935203194618225
            ],
            "min" : [
                -0.535281777381897,
                0.5112672448158264,
                -4.3845696449279785
            ],
            "type" : "VEC3"
        },
        {
            "bufferView" : 5,
            "componentType" : 5126,
            "count" : 108,
            "type" : "VEC3"
        },
        {
            "bufferView" : 6,
            "componentType" : 5126,
            "count" : 108,
            "type" : "VEC2"
        },
        {
            "bufferView" : 7,
            "componentType" : 5123,
            "count" : 180,
            "type" : "SCALAR"
        },
        {
            "bufferView" : 8,
            "componentType" : 5126,
            "count" : 24,
            "max" : [
                7.496150493621826,
                0.5112672448158264,
                -0.08986270427703857
            ],
            "min" : [
                -6.841158324277785e-07,
                0.5112672448158264,
                -4.3845696449279785
            ],
            "type" : "VEC3"
        },
        {
            "bufferView" : 9,
            "componentType" : 5126,
            "count" : 24,
            "type" : "VEC3"
        },
        {
            "bufferView" : 10,
            "componentType" : 5126,
            "count" : 24,
            "type" : "VEC2"
        },
        {
            "bufferView" : 11,
            "componentType" : 5123,
            "count" : 36,
            "type" : "SCALAR"
        },
        {
            "bufferView" : 12,
            "componentType" : 5126,
            "count" : 967,
            "max" : [
                8.411050796508789,
                1.3520934581756592,
                1.4565221071243286
            ],
            "min" : [
                -1.4501817226409912,
                -1.0705623626708984,
                -5.34757137298584
            ],
            "type" : "VEC3"
        },
        {
            "bufferView" : 13,
            "componentType" : 5126,
            "count" : 967,
            "type" : "VEC3"
        },
        {
            "bufferView" : 14,
            "componentType" : 5126,
            "count" : 967,
            "type" : "VEC2"
        },
        {
            "bufferView" : 15,
            "componentType" : 5123,
            "count" : 3456,
            "type" : "SCALAR"
        },
        {
            "bufferView" : 16,
            "componentType" : 5126,
            "count" : 68,
            "max" : [
                4,
                0.5392799973487854,
                4
            ],
            "min" : [
                -4,
                0,
                -4
            ],
            "type" : "VEC3"
        },
        {
            "bufferView" : 17,
            "componentType" : 5126,
            "count" : 68,
            "type" : "VEC3"
        },
        {
            "bufferView" : 18,
            "componentType" : 5126,
            "count" : 68,
            "type" : "VEC2"
        },
        {
            "bufferView" : 19,
            "componentType" : 5123,
            "count" : 114,
            "type" : "SCALAR"
        },
        {
            "bufferView" : 20,
            "componentType" : 5126,
            "count" : 24,
            "max" : [
                1,
                1,
                1
            ],
            "min" : [
                -1,
                -1,
                -1
            ],
            "type" : "VEC3"
        },
        {
            "bufferView" : 21,
            "componentType" : 5126,
            "count" : 24,
            "type" : "VEC3"
        },
        {
            "bufferView" : 22,
            "componentType" : 5126,
            "count" : 24,
            "type" : "VEC2"
        },
        {
            "bufferView" : 23,
            "componentType" : 5123,
            "count" : 36,
            "type" : "SCALAR"
        },
        {
            "bufferView" : 24,
            "componentType" : 5126,
            "count" : 4,
            "max" : [
                1,
                0,
                1
            ],
            "min" : [
                -1,
                0,
                -1
            ],
            "type" : "VEC3"
        },
        {
            "bufferView" : 25,
            "componentType" : 5126,
            "count" : 4,
            "type" : "VEC3"
        },
        {
            "bufferView" : 26,
            "componentType" : 5126,
            "count" : 4,
            "type" : "VEC2"
        },
        {
            "bufferView" : 27,
            "componentType" : 5123,
            "count" : 6,
            "type" : "SCALAR"
        }
    ],
    "bufferViews" : [
        {
            "buffer" : 0,
            "byteLength" : 23748,
            "byteOffset" : 0
        },
        {
            "buffer" : 0,
            "byteLength" : 23748,
            "byteOffset" : 23748
        },
        {
            "buffer" : 0,
            "byteLength" : 15832,
            "byteOffset" : 47496
        },
        {
            "buffer" : 0,
            "byteLength" : 15768,
            "byteOffset" : 63328
        },
        {
            "buffer" : 0,
            "byteLength" : 1296,
            "byteOffset" : 79096
        },
        {
            "buffer" : 0,
            "byteLength" : 1296,
            "byteOffset" : 80392
        },
        {
            "buffer" : 0,
            "byteLength" : 864,
            "byteOffset" : 81688
        },
        {
            "buffer" : 0,
            "byteLength" : 360,
            "byteOffset" : 82552
        },
        {
            "buffer" : 0,
            "byteLength" : 288,
            "byteOffset" : 82912
        },
        {
            "buffer" : 0,
            "byteLength" : 288,
            "byteOffset" : 83200
        },
        {
            "buffer" : 0,
            "byteLength" : 192,
            "byteOffset" : 83488
        },
        {
            "buffer" : 0,
            "byteLength" : 72,
            "byteOffset" : 83680
        },
        {
            "buffer" : 0,
            "byteLength" : 11604,
            "byteOffset" : 83752
        },
        {
            "buffer" : 0,
            "byteLength" : 11604,
            "byteOffset" : 95356
        },
        {
            "buffer" : 0,
            "byteLength" : 7736,
            "byteOffset" : 106960
        },
        {
            "buffer" : 0,
            "byteLength" : 6912,
            "byteOffset" : 114696
        },
        {
            "buffer" : 0,
            "byteLength" : 816,
            "byteOffset" : 121608
        },
        {
            "buffer" : 0,
            "byteLength" : 816,
            "byteOffset" : 122424
        },
        {
            "buffer" : 0,
            "byteLength" : 544,
            "byteOffset" : 123240
        },
        {
            "buffer" : 0,
            "byteLength" : 228,
            "byteOffset" : 123784
        },
        {
            "buffer" : 0,
            "byteLength" : 288,
            "byteOffset" : 124012
        },
        {
            "buffer" : 0,
            "byteLength" : 288,
            "byteOffset" : 124300
        },
        {
            "buffer" : 0,
            "byteLength" : 192,
            "byteOffset" : 124588
        },
        {
            "buffer" : 0,
            "byteLength" : 72,
            "byteOffset" : 124780
        },
        {
            "buffer" : 0,
            "byteLength" : 48,
            "byteOffset" : 124852
        },
        {
            "buffer" : 0,
            "byteLength" : 48,
            "byteOffset" : 124900
        },
        {
            "buffer" : 0,
            "byteLength" : 32,
            "byteOffset" : 124948
        },
        {
            "buffer" : 0,
            "byteLength" : 12,
            "byteOffset" : 124980
        }
    ],
    "buffers" : [
        {
            "byteLength" : 124992,
            "uri" : "data:application/octet-stream;base64,"
        }
    ]
}
